<svg width="88" height="88" viewBox="0 0 88 88" fill="none" xmlns="http://www.w3.org/2000/svg">
<path fill-rule="evenodd" clip-rule="evenodd" d="M15.2824 0.213281C15.0965 0.310167 14.9056 0.450404 14.8582 0.524887C14.7438 0.704694 14.7677 21.1229 14.8847 23.0845C14.9827 24.7284 15.0921 25.4715 15.3947 26.5474C15.5 26.9221 15.651 27.4877 15.7302 27.8046C15.8093 28.1211 15.9513 28.5555 16.0453 28.7697C16.1392 28.9838 16.3836 29.5677 16.5885 30.0673C17.3025 31.8083 17.7008 32.545 18.8459 34.2421C19.2573 34.8523 19.6484 35.44 19.7144 35.5479C20.0377 36.0757 22.0708 38.1676 23.3827 39.3224C23.843 39.7274 24.3283 40.1641 24.4616 40.293C24.5945 40.4219 25.0356 40.8028 25.4415 41.1397C25.8476 41.4763 26.4639 42.0096 26.8116 42.3247C27.1592 42.6398 27.8697 43.2552 28.3908 43.6922C28.9119 44.1295 29.4909 44.6293 29.6774 44.8036C29.8639 44.9776 30.4307 45.4757 30.9366 45.9101C31.4426 46.3445 32.1304 46.9427 32.4653 47.2397C33.3064 47.986 33.2491 47.9365 34.0707 48.6252C34.4766 48.9656 34.991 49.4265 35.2139 49.6497C35.4365 49.8728 35.8452 50.2324 36.1222 50.4492C36.7262 50.922 37.3753 51.4922 37.9491 52.0549C38.1819 52.283 38.4786 52.544 38.6084 52.6351C38.7381 52.7259 39.0349 52.9737 39.2677 53.1861C41.261 55.0025 41.2237 55.0022 41.2243 53.2013C41.2249 51.4183 41.7931 50.3235 42.8042 50.1571C43.0279 50.1201 43.3413 50.041 43.5004 49.9808C43.8647 49.8431 44.9456 50.1064 45.4285 50.4503C46.2813 51.0578 46.5586 51.7832 46.5597 53.4093C46.5603 54.7078 46.588 54.75 47.1245 54.2778C47.3537 54.0762 47.6912 53.7878 47.874 53.6374C48.057 53.487 48.4137 53.1806 48.6668 52.9563C48.9199 52.732 49.2784 52.4207 49.4628 52.2644C50.0031 51.8079 51.3389 50.6427 51.6755 50.3343C51.846 50.1783 52.2082 49.8638 52.4803 49.6357C53.7965 48.5321 54.1608 48.2217 54.7919 47.6657C56.981 45.7373 58.6283 44.2968 59.2722 43.7486C59.6754 43.4053 60.2629 42.8862 60.5777 42.5953C60.8928 42.3041 61.3036 41.9485 61.491 41.8048C61.9035 41.4888 64.6324 39.0763 65.5785 38.1912C66.9565 36.9023 69.2686 34.0457 69.2686 33.6323C69.2686 33.5762 69.3091 33.5302 69.3582 33.5302C69.4473 33.5302 70.8575 30.799 71.3099 29.751C71.6358 28.9957 72.0972 27.5573 72.1802 27.0379C72.2183 26.7994 72.2942 26.6041 72.3486 26.6041C72.403 26.6041 72.449 26.4383 72.4504 26.2352C72.4519 26.0324 72.506 25.6618 72.5706 25.4121C72.8732 24.2413 72.9296 22.3184 72.9742 11.6409L73.0207 0.480954L72.5354 0.260705C71.5322 -0.194631 70.8389 -0.0724316 69.6064 0.777141C68.4816 1.55223 68.0015 1.88828 67.3382 2.36311C67.1197 2.51964 66.7621 2.77131 66.5436 2.9226C66.3251 3.0736 65.6862 3.53243 65.1243 3.94238C64.5622 4.35262 63.1828 5.32846 62.0586 6.11141C60.9347 6.89406 59.6458 7.79775 59.1945 8.11925L58.374 8.70376L57.7753 8.58186C57.4459 8.51465 56.8954 8.3747 56.5518 8.27054C56.2085 8.16638 55.7229 8.03284 55.4733 7.97348C55.2233 7.91442 54.917 7.81957 54.7919 7.76254C54.667 7.70581 54.3351 7.63103 54.054 7.59612C53.773 7.5615 53.2877 7.47858 52.9755 7.41195C52.663 7.34532 51.9557 7.22021 51.4032 7.13409C50.8504 7.04797 50.3141 6.94498 50.2112 6.90541C49.0319 6.45298 38.0713 6.46724 37.3352 6.92228C37.2674 6.96418 36.8755 7.03517 36.4644 7.08027C35.6145 7.17308 33.6038 7.57721 32.7804 7.82044C32.4766 7.91006 32.1566 7.98337 32.0693 7.98337C31.9817 7.98337 31.8217 8.02818 31.7132 8.08288C31.6046 8.13758 31.2095 8.27083 30.8348 8.37877C30.4601 8.48701 30.0361 8.62084 29.8927 8.67671C29.4225 8.85971 29.1732 8.78523 28.4094 8.23388C27.9948 7.9345 27.4644 7.57284 27.2305 7.43028C26.9969 7.28771 26.7667 7.11111 26.7196 7.03808C26.6725 6.96476 26.266 6.65548 25.8165 6.35115C25.367 6.04652 24.9038 5.70844 24.7874 5.59992C24.671 5.49139 24.4514 5.33603 24.2992 5.25456C24.0842 5.13964 22.6353 4.09105 21.7517 3.4111C21.6891 3.3631 21.2547 3.04655 20.7863 2.70788C20.3181 2.36921 19.8596 2.0256 19.7674 1.94385C17.9775 0.357591 16.2693 -0.301409 15.2824 0.213281ZM78.4047 20.2742C78.3622 20.3836 78.3561 20.5477 78.3913 20.6394C78.5703 21.1052 77.929 27.0726 77.6724 27.3289C77.609 27.3926 77.5569 27.5907 77.5569 27.7694C77.5569 27.948 77.4792 28.3594 77.3841 28.6835C77.0117 29.9521 76.6052 31.2081 76.5325 31.3161C76.4903 31.3786 76.2892 31.8386 76.0856 32.3382C75.6169 33.4886 74.6512 35.4065 74.3035 35.8787C74.1572 36.0774 74.0373 36.2706 74.0373 36.3076C74.0373 36.7405 70.694 40.9049 69.4307 42.046C69.0501 42.3893 68.3344 43.0364 67.8401 43.4839C67.3455 43.9313 66.7877 44.4152 66.6003 44.5595C66.413 44.7035 66.0298 45.0332 65.7487 45.2921C65.4677 45.551 65.0333 45.9348 64.7836 46.1452C64.3702 46.4931 61.8762 48.6779 61.4272 49.0855C61.324 49.1792 60.9914 49.46 60.688 49.7099C60.3845 49.9598 59.8535 50.4224 59.5079 50.7381C59.1622 51.0538 58.5748 51.565 58.2021 51.8737C57.5634 52.4026 57.2469 52.6819 56.1544 53.6796C55.9047 53.9077 55.4832 54.2533 55.2178 54.4477C54.9525 54.6421 54.7351 54.8358 54.7351 54.8786C54.7351 54.9214 54.1617 55.4366 53.4605 56.0232C52.7593 56.61 52.0823 57.198 51.956 57.3301C51.8297 57.4619 51.2411 57.9728 50.6479 58.4651C50.0546 58.9574 49.4925 59.4459 49.3988 59.551C49.3051 59.656 48.6665 60.2114 47.9796 60.7852C47.2926 61.3589 46.4864 62.0569 46.1882 62.3365C44.4067 64.0068 42.7428 63.761 40.6005 61.5114C40.5374 61.445 40.1536 61.1148 39.7477 60.7779C39.3419 60.4407 38.7774 59.9583 38.4938 59.706C38.2098 59.4538 37.2689 58.6342 36.4027 57.885C35.5365 57.1355 34.5147 56.2414 34.1315 55.8978C32.3233 54.2758 32.0926 54.077 31.0623 53.2507C30.6873 52.9502 30.3041 52.6133 30.2104 52.5018C30.1167 52.3907 29.7336 52.0488 29.3588 51.7427C28.9841 51.4364 28.5689 51.0837 28.4362 50.9589C28.0993 50.6412 27.3783 50.0096 26.8168 49.5397C26.5555 49.3209 26.1523 48.9706 25.9201 48.7608C25.6882 48.551 25.2215 48.1422 24.8828 47.8525C24.5445 47.5627 23.8401 46.9552 23.3178 46.5025C22.1939 45.5281 22.1857 45.526 22.1185 46.2185C22.0403 47.0288 21.795 48.2196 21.6815 48.3418C21.6263 48.4009 21.5814 48.5542 21.5817 48.6822C21.5849 49.9944 19.0656 55.1367 17.6237 56.7613C17.3961 57.0179 17.0962 57.3755 16.9571 57.5562C16.1884 58.5547 13.1221 61.3473 12.7933 61.3479C12.7375 61.3479 12.48 61.5213 12.2213 61.7331C11.8335 62.0511 8.95162 63.539 8.12649 63.8471C8.00167 63.8939 7.69501 64.0141 7.44538 64.1145C7.19545 64.2149 6.55682 64.4299 6.02613 64.5922C5.49514 64.7546 4.99529 64.9076 4.91528 64.9321C4.75293 64.9821 5.50067 66.4732 6.26558 67.6248C6.50852 67.9905 6.70724 68.3141 6.70724 68.3434C6.70724 68.3728 6.80034 68.4968 6.91411 68.619C7.02787 68.7409 7.37148 69.2113 7.67756 69.6644C7.98393 70.1174 8.2644 70.5133 8.30106 70.5448C8.33801 70.5759 8.82011 71.1636 9.37263 71.8505C9.92543 72.5375 10.5862 73.3038 10.8416 73.5535C11.0968 73.8034 11.7215 74.442 12.2297 74.9727C13.4276 76.2238 15.255 77.8089 16.8692 78.9971C17.1192 79.181 17.3641 79.3984 17.4142 79.4798C17.4642 79.5613 17.5535 79.6279 17.6126 79.6279C17.672 79.6279 17.985 79.8196 18.3088 80.0539C18.9903 80.547 19.2687 80.7207 20.9361 81.6934C22.9856 82.8886 23.6155 83.2162 25.2713 83.9473C26.1456 84.3337 26.9093 84.6948 26.9687 84.7504C27.028 84.8057 27.1482 84.8507 27.2355 84.8507C27.3227 84.8507 27.5552 84.922 27.7519 85.009C27.9489 85.0963 28.5698 85.3049 29.1316 85.4731C31.0196 86.0378 31.2884 86.1274 31.3969 86.2272C31.4563 86.2822 31.6413 86.327 31.8083 86.327C31.9753 86.327 32.3291 86.4035 32.5948 86.4972C32.8601 86.5909 33.2212 86.6674 33.3972 86.6674C33.5729 86.6674 33.7484 86.7186 33.7868 86.7812C33.8255 86.8435 33.9945 86.8941 34.1627 86.8938C34.3306 86.8932 34.8258 86.9735 35.2631 87.0724C36.8417 87.4291 37.0335 87.4623 37.5069 87.4623C37.7716 87.4623 38.3884 87.5391 38.8778 87.6328C39.9273 87.8336 47.9912 87.883 48.5586 87.6922C48.7398 87.6313 49.3732 87.5304 49.9665 87.4675C51.3339 87.3235 52.2001 87.185 53.2024 86.9511C53.6397 86.849 54.1506 86.7378 54.338 86.7038C54.6438 86.6485 56.6126 86.0774 58.7659 85.4198C59.2029 85.2863 59.7217 85.1036 59.9184 85.014C60.1154 84.9244 60.3228 84.8507 60.3798 84.8507C60.4369 84.8507 60.7482 84.723 61.0717 84.5671C61.3952 84.4108 61.6871 84.2831 61.7197 84.2831C61.8648 84.2831 64.2521 83.1324 65.1243 82.6419C65.4365 82.4664 65.9474 82.1827 66.2596 82.012C70.0586 79.9328 74.1275 76.6306 77.3695 72.9954C77.8161 72.4947 78.3003 71.9556 78.4455 71.7973C78.5906 71.6393 79.0198 71.0755 79.3989 70.5448C79.7783 70.0138 80.1193 69.5541 80.1568 69.5229C80.2834 69.4176 81.1501 68.1127 81.897 66.9029C82.5487 65.8468 84.483 62.0808 84.483 61.8675C84.483 61.8236 84.6057 61.5227 84.7559 61.1989C85.2004 60.239 85.3514 59.8466 85.5065 59.2472C85.5874 58.935 85.6907 58.6286 85.7358 58.5661C85.7812 58.5035 85.9034 58.146 86.0075 57.7712C86.1114 57.3968 86.2292 57.0133 86.2691 56.9196C86.3087 56.8262 86.4053 56.4683 86.4835 56.125C86.5618 55.7814 86.6834 55.2705 86.7538 54.9894C86.8242 54.7084 86.9345 54.121 86.9988 53.684C87.0631 53.2467 87.162 52.8405 87.2188 52.7811C87.2752 52.7218 87.3215 52.4628 87.3215 52.2059C87.3215 51.9487 87.3773 51.437 87.4454 51.068C87.9016 48.6014 87.8987 42.9476 87.4405 40.7969C87.3805 40.5159 87.3293 40.0681 87.3264 39.8019C87.3238 39.5357 87.2755 39.229 87.219 39.1205C87.1626 39.0123 87.0657 38.6169 87.0035 38.2421C86.8283 37.19 85.9642 33.843 85.7428 33.36C85.6857 33.2352 85.5557 32.852 85.4538 32.5084C85.3523 32.1651 85.2147 31.7563 85.1481 31.6C84.5627 30.2282 84.3558 29.7557 83.9543 28.875C83.741 28.4066 83.4827 27.8703 83.3803 27.683C83.2778 27.4956 83.1571 27.2658 83.112 27.1721C82.5956 26.0999 82.1382 25.2998 81.3593 24.1063C80.8499 23.3257 80.3369 22.5209 80.2194 22.3182C80.1021 22.1151 79.9744 21.9489 79.9363 21.9489C79.8979 21.9489 79.6931 21.7063 79.4815 21.4098C79.2697 21.113 79.0567 20.8192 79.0079 20.7569C78.9593 20.6944 78.8211 20.5157 78.7009 20.3595C78.5057 20.1064 78.474 20.0971 78.4047 20.2742ZM35.7361 29.3303C38.7879 31.6466 35.8228 35.9925 32.7306 33.7356C30.9395 32.4284 31.7559 29.2177 33.9145 29.0807C34.6817 29.0318 35.4885 29.1424 35.7361 29.3303ZM54.6784 29.3359C57.118 30.8005 55.8966 34.6224 53.1017 34.2686C50.9278 33.9934 49.9557 31.7795 51.2263 29.9954C51.8853 29.0696 53.6676 28.7292 54.6784 29.3359Z" fill="#050505"/>
<path fill-rule="evenodd" clip-rule="evenodd" d="M1.98049 43.5045C1.14547 43.7297 0.788764 43.9796 0.338665 44.6546L0 45.1632L0.0474253 47.4934C0.0965958 49.899 0.261272 51.7864 0.461445 52.2414C0.524581 52.3849 0.57608 52.7707 0.57608 53.0989C0.57608 53.4268 0.619432 53.7436 0.672093 53.803C0.725046 53.8623 0.855683 54.3709 0.962752 54.9327C1.06982 55.4948 1.32877 56.491 1.53825 57.1468C1.74744 57.8026 2.00348 58.6199 2.10676 58.9635C2.34098 59.7418 2.49285 59.8687 3.04624 59.7494C4.24001 59.4919 4.62668 59.3959 4.83383 59.3057C4.95865 59.2513 5.34474 59.1055 5.69155 58.9816C6.54433 58.6769 7.50562 58.2024 8.50009 57.5955C8.95542 57.3173 9.47506 57.0133 9.65515 56.9196C11.777 55.8158 15.0441 51.4303 16.0351 48.3555C16.7651 46.0916 17.1579 43.7699 16.8611 43.4731C16.5853 43.1973 3.01336 43.2258 1.98049 43.5045Z" fill="#970F0F"/>
</svg>
